<mxfile host="app.diagrams.net" modified="2023-09-25T09:35:42.343Z" agent="Mozilla/5.0 (Macintosh; Intel Mac OS X 10_15_7) AppleWebKit/537.36 (KHTML, like Gecko) Chrome/117.0.0.0 Safari/537.36" etag="XZPxejKRa29ohZOhl_0n" version="21.8.2" type="github">
  <diagram name="第 1 页" id="WSdMZkJwblnFRKAHKaa3">
    <mxGraphModel dx="2113" dy="700" grid="1" gridSize="10" guides="1" tooltips="1" connect="1" arrows="1" fold="1" page="1" pageScale="1" pageWidth="827" pageHeight="1169" math="0" shadow="0">
      <root>
        <mxCell id="0" />
        <mxCell id="1" parent="0" />
        <mxCell id="7ryY0xuVJwBkGCdU82s2-50" value="" style="rounded=0;whiteSpace=wrap;html=1;" parent="1" vertex="1">
          <mxGeometry x="50" y="270" width="590" height="480" as="geometry" />
        </mxCell>
        <mxCell id="7ryY0xuVJwBkGCdU82s2-1" value="" style="rounded=0;whiteSpace=wrap;html=1;fillColor=#f5f5f5;fontColor=#333333;strokeColor=#666666;" parent="1" vertex="1">
          <mxGeometry x="90" y="520" width="510" height="225" as="geometry" />
        </mxCell>
        <mxCell id="7ryY0xuVJwBkGCdU82s2-2" value="" style="rounded=0;whiteSpace=wrap;html=1;fillColor=#b1ddf0;strokeColor=#10739e;" parent="1" vertex="1">
          <mxGeometry x="140" y="670" width="390" height="50" as="geometry" />
        </mxCell>
        <mxCell id="7ryY0xuVJwBkGCdU82s2-3" value="Sofa trigger" style="text;strokeColor=none;align=center;fillColor=none;html=1;verticalAlign=middle;whiteSpace=wrap;rounded=0;" parent="1" vertex="1">
          <mxGeometry x="170" y="675" width="100" height="30" as="geometry" />
        </mxCell>
        <mxCell id="7ryY0xuVJwBkGCdU82s2-4" value="Sofa ark" style="text;strokeColor=none;align=center;fillColor=none;html=1;verticalAlign=middle;whiteSpace=wrap;rounded=0;" parent="1" vertex="1">
          <mxGeometry x="370" y="675" width="100" height="30" as="geometry" />
        </mxCell>
        <mxCell id="7ryY0xuVJwBkGCdU82s2-5" value="通用service" style="rounded=0;whiteSpace=wrap;html=1;fillColor=#e1d5e7;strokeColor=#9673a6;" parent="1" vertex="1">
          <mxGeometry x="160" y="550" width="120" height="50" as="geometry" />
        </mxCell>
        <mxCell id="7ryY0xuVJwBkGCdU82s2-6" value="数据源" style="rounded=0;whiteSpace=wrap;html=1;fillColor=#e1d5e7;strokeColor=#9673a6;" parent="1" vertex="1">
          <mxGeometry x="390" y="550" width="120" height="50" as="geometry" />
        </mxCell>
        <mxCell id="7ryY0xuVJwBkGCdU82s2-7" value="工具类" style="rounded=0;whiteSpace=wrap;html=1;fillColor=#e1d5e7;strokeColor=#9673a6;" parent="1" vertex="1">
          <mxGeometry x="160" y="607.5" width="120" height="50" as="geometry" />
        </mxCell>
        <mxCell id="7ryY0xuVJwBkGCdU82s2-8" value="通用下游" style="rounded=0;whiteSpace=wrap;html=1;fillColor=#e1d5e7;strokeColor=#9673a6;" parent="1" vertex="1">
          <mxGeometry x="390" y="607.5" width="120" height="50" as="geometry" />
        </mxCell>
        <mxCell id="7ryY0xuVJwBkGCdU82s2-9" value="&lt;font style=&quot;font-size: 15px;&quot;&gt;RcServlib基座&lt;/font&gt;" style="text;strokeColor=none;align=center;fillColor=none;html=1;verticalAlign=middle;whiteSpace=wrap;rounded=0;" parent="1" vertex="1">
          <mxGeometry x="100" y="535" width="60" height="30" as="geometry" />
        </mxCell>
        <mxCell id="7ryY0xuVJwBkGCdU82s2-16" value="" style="rounded=0;whiteSpace=wrap;html=1;dashed=1;" parent="1" vertex="1">
          <mxGeometry x="110" y="310" width="280" height="100" as="geometry" />
        </mxCell>
        <mxCell id="7ryY0xuVJwBkGCdU82s2-14" value="模块1" style="rounded=0;whiteSpace=wrap;html=1;fillColor=#dae8fc;strokeColor=#6c8ebf;" parent="1" vertex="1">
          <mxGeometry x="120" y="340" width="70" height="40" as="geometry" />
        </mxCell>
        <mxCell id="7ryY0xuVJwBkGCdU82s2-17" value="定制场景" style="whiteSpace=wrap;html=1;dashed=1;fillColor=#d5e8d4;strokeColor=#82b366;" parent="1" vertex="1">
          <mxGeometry x="200" y="280" width="90" height="40" as="geometry" />
        </mxCell>
        <mxCell id="7ryY0xuVJwBkGCdU82s2-23" value="模块2" style="rounded=0;whiteSpace=wrap;html=1;fillColor=#dae8fc;strokeColor=#6c8ebf;" parent="1" vertex="1">
          <mxGeometry x="300" y="340" width="70" height="40" as="geometry" />
        </mxCell>
        <mxCell id="BnzrwBopkVC8lU074Qnc-7" value="" style="edgeStyle=orthogonalEdgeStyle;rounded=0;orthogonalLoop=1;jettySize=auto;html=1;" parent="1" source="7ryY0xuVJwBkGCdU82s2-24" target="7ryY0xuVJwBkGCdU82s2-23" edge="1">
          <mxGeometry relative="1" as="geometry" />
        </mxCell>
        <mxCell id="7ryY0xuVJwBkGCdU82s2-24" value="" style="rounded=0;whiteSpace=wrap;html=1;dashed=1;" parent="1" vertex="1">
          <mxGeometry x="400" y="310" width="200" height="100" as="geometry" />
        </mxCell>
        <mxCell id="7ryY0xuVJwBkGCdU82s2-25" value="定制场景" style="whiteSpace=wrap;html=1;dashed=1;fillColor=#d5e8d4;strokeColor=#82b366;" parent="1" vertex="1">
          <mxGeometry x="455" y="280" width="90" height="40" as="geometry" />
        </mxCell>
        <mxCell id="7ryY0xuVJwBkGCdU82s2-26" value="模块3" style="rounded=0;whiteSpace=wrap;html=1;fillColor=#dae8fc;strokeColor=#6c8ebf;" parent="1" vertex="1">
          <mxGeometry x="500" y="340" width="70" height="40" as="geometry" />
        </mxCell>
        <mxCell id="7ryY0xuVJwBkGCdU82s2-27" value="" style="shape=flexArrow;endArrow=classic;html=1;rounded=0;entryX=1;entryY=0;entryDx=0;entryDy=0;" parent="1" edge="1">
          <mxGeometry width="50" height="50" relative="1" as="geometry">
            <mxPoint x="380" y="160" as="sourcePoint" />
            <mxPoint x="380" y="220" as="targetPoint" />
          </mxGeometry>
        </mxCell>
        <mxCell id="7ryY0xuVJwBkGCdU82s2-28" value="业务流量" style="text;strokeColor=none;align=center;fillColor=none;html=1;verticalAlign=middle;whiteSpace=wrap;rounded=0;" parent="1" vertex="1">
          <mxGeometry x="350" y="120" width="60" height="30" as="geometry" />
        </mxCell>
        <mxCell id="7ryY0xuVJwBkGCdU82s2-29" value="mosn路由" style="whiteSpace=wrap;html=1;" parent="1" vertex="1">
          <mxGeometry x="345" y="220" width="70" height="30" as="geometry" />
        </mxCell>
        <mxCell id="7ryY0xuVJwBkGCdU82s2-30" value="" style="endArrow=classic;html=1;rounded=0;entryX=0.5;entryY=0;entryDx=0;entryDy=0;" parent="1" target="7ryY0xuVJwBkGCdU82s2-17" edge="1">
          <mxGeometry relative="1" as="geometry">
            <mxPoint x="340" y="240" as="sourcePoint" />
            <mxPoint x="610" y="390" as="targetPoint" />
          </mxGeometry>
        </mxCell>
        <mxCell id="7ryY0xuVJwBkGCdU82s2-31" value="流量转发" style="edgeLabel;resizable=0;html=1;align=center;verticalAlign=middle;" parent="7ryY0xuVJwBkGCdU82s2-30" connectable="0" vertex="1">
          <mxGeometry relative="1" as="geometry" />
        </mxCell>
        <mxCell id="7ryY0xuVJwBkGCdU82s2-32" value="" style="endArrow=classic;html=1;rounded=0;entryX=0.5;entryY=0;entryDx=0;entryDy=0;exitX=1;exitY=0.5;exitDx=0;exitDy=0;" parent="1" source="7ryY0xuVJwBkGCdU82s2-29" target="7ryY0xuVJwBkGCdU82s2-25" edge="1">
          <mxGeometry relative="1" as="geometry">
            <mxPoint x="350" y="250" as="sourcePoint" />
            <mxPoint x="255" y="290" as="targetPoint" />
          </mxGeometry>
        </mxCell>
        <mxCell id="7ryY0xuVJwBkGCdU82s2-33" value="流量转发" style="edgeLabel;resizable=0;html=1;align=center;verticalAlign=middle;" parent="7ryY0xuVJwBkGCdU82s2-32" connectable="0" vertex="1">
          <mxGeometry relative="1" as="geometry" />
        </mxCell>
        <mxCell id="7ryY0xuVJwBkGCdU82s2-35" value="玲珑平台" style="rounded=0;whiteSpace=wrap;html=1;dashed=1;fillColor=#ffe6cc;strokeColor=#d79b00;" parent="1" vertex="1">
          <mxGeometry x="700" y="190" width="110" height="560" as="geometry" />
        </mxCell>
        <mxCell id="7ryY0xuVJwBkGCdU82s2-44" value="" style="endArrow=classic;html=1;rounded=0;exitX=0;exitY=0.085;exitDx=0;exitDy=0;exitPerimeter=0;" parent="1" source="7ryY0xuVJwBkGCdU82s2-35" edge="1">
          <mxGeometry relative="1" as="geometry">
            <mxPoint x="690" y="230" as="sourcePoint" />
            <mxPoint x="420" y="235" as="targetPoint" />
          </mxGeometry>
        </mxCell>
        <mxCell id="7ryY0xuVJwBkGCdU82s2-45" value="下发路由规则" style="edgeLabel;resizable=0;html=1;align=center;verticalAlign=middle;" parent="7ryY0xuVJwBkGCdU82s2-44" connectable="0" vertex="1">
          <mxGeometry relative="1" as="geometry" />
        </mxCell>
        <mxCell id="7ryY0xuVJwBkGCdU82s2-46" value="" style="endArrow=classic;html=1;rounded=0;exitX=0;exitY=0.31;exitDx=0;exitDy=0;exitPerimeter=0;" parent="1" edge="1">
          <mxGeometry relative="1" as="geometry">
            <mxPoint x="698.02" y="361.0399999999999" as="sourcePoint" />
            <mxPoint x="570" y="359" as="targetPoint" />
          </mxGeometry>
        </mxCell>
        <mxCell id="7ryY0xuVJwBkGCdU82s2-49" value="新建模块" style="edgeLabel;html=1;align=center;verticalAlign=middle;resizable=0;points=[];" parent="7ryY0xuVJwBkGCdU82s2-46" vertex="1" connectable="0">
          <mxGeometry x="-0.1348" y="-3" relative="1" as="geometry">
            <mxPoint as="offset" />
          </mxGeometry>
        </mxCell>
        <mxCell id="7ryY0xuVJwBkGCdU82s2-51" value="linke" style="rounded=0;whiteSpace=wrap;html=1;dashed=1;fillColor=#ffe6cc;strokeColor=#d79b00;" parent="1" vertex="1">
          <mxGeometry x="-120" y="200" width="110" height="550" as="geometry" />
        </mxCell>
        <mxCell id="7ryY0xuVJwBkGCdU82s2-52" value="" style="endArrow=classic;html=1;rounded=0;" parent="1" target="7ryY0xuVJwBkGCdU82s2-14" edge="1">
          <mxGeometry relative="1" as="geometry">
            <mxPoint x="-10" y="359.5" as="sourcePoint" />
            <mxPoint x="110" y="360" as="targetPoint" />
          </mxGeometry>
        </mxCell>
        <mxCell id="7ryY0xuVJwBkGCdU82s2-53" value="组件迭代发布" style="edgeLabel;resizable=0;html=1;align=center;verticalAlign=middle;" parent="7ryY0xuVJwBkGCdU82s2-52" connectable="0" vertex="1">
          <mxGeometry relative="1" as="geometry" />
        </mxCell>
        <mxCell id="7ryY0xuVJwBkGCdU82s2-64" value="" style="endArrow=classic;html=1;rounded=0;" parent="1" edge="1">
          <mxGeometry relative="1" as="geometry">
            <mxPoint x="-10" y="601" as="sourcePoint" />
            <mxPoint x="90" y="600.5" as="targetPoint" />
          </mxGeometry>
        </mxCell>
        <mxCell id="7ryY0xuVJwBkGCdU82s2-65" value="基座迭代发布" style="edgeLabel;resizable=0;html=1;align=center;verticalAlign=middle;" parent="7ryY0xuVJwBkGCdU82s2-64" connectable="0" vertex="1">
          <mxGeometry relative="1" as="geometry" />
        </mxCell>
        <mxCell id="7ryY0xuVJwBkGCdU82s2-66" value="" style="endArrow=classic;html=1;rounded=0;entryX=1;entryY=0.5;entryDx=0;entryDy=0;exitX=-0.036;exitY=0.787;exitDx=0;exitDy=0;exitPerimeter=0;" parent="1" source="7ryY0xuVJwBkGCdU82s2-35" target="7ryY0xuVJwBkGCdU82s2-1" edge="1">
          <mxGeometry relative="1" as="geometry">
            <mxPoint x="690" y="633" as="sourcePoint" />
            <mxPoint x="540" y="480" as="targetPoint" />
          </mxGeometry>
        </mxCell>
        <mxCell id="7ryY0xuVJwBkGCdU82s2-67" value="基座运维" style="edgeLabel;resizable=0;html=1;align=center;verticalAlign=middle;" parent="7ryY0xuVJwBkGCdU82s2-66" connectable="0" vertex="1">
          <mxGeometry relative="1" as="geometry" />
        </mxCell>
        <mxCell id="7ryY0xuVJwBkGCdU82s2-71" value="" style="endArrow=classic;html=1;rounded=0;entryX=1;entryY=0.5;entryDx=0;entryDy=0;exitX=-0.045;exitY=0.703;exitDx=0;exitDy=0;exitPerimeter=0;" parent="1" target="7ryY0xuVJwBkGCdU82s2-25" edge="1">
          <mxGeometry relative="1" as="geometry">
            <mxPoint x="700" y="299.5" as="sourcePoint" />
            <mxPoint x="605" y="300.5" as="targetPoint" />
          </mxGeometry>
        </mxCell>
        <mxCell id="7ryY0xuVJwBkGCdU82s2-73" value="场景运维" style="edgeLabel;html=1;align=center;verticalAlign=middle;resizable=0;points=[];" parent="7ryY0xuVJwBkGCdU82s2-71" vertex="1" connectable="0">
          <mxGeometry x="0.0839" relative="1" as="geometry">
            <mxPoint as="offset" />
          </mxGeometry>
        </mxCell>
        <mxCell id="7ryY0xuVJwBkGCdU82s2-76" value="公共模块" style="rounded=0;whiteSpace=wrap;html=1;fillColor=#dae8fc;strokeColor=#6c8ebf;" parent="1" vertex="1">
          <mxGeometry x="110" y="450" width="490" height="40" as="geometry" />
        </mxCell>
        <mxCell id="7ryY0xuVJwBkGCdU82s2-77" value="默认场景" style="whiteSpace=wrap;html=1;dashed=1;fillColor=#d5e8d4;strokeColor=#82b366;" parent="1" vertex="1">
          <mxGeometry x="300" y="420" width="100" height="40" as="geometry" />
        </mxCell>
        <mxCell id="7ryY0xuVJwBkGCdU82s2-84" value="" style="endArrow=classic;startArrow=classic;html=1;rounded=0;entryX=0.69;entryY=1.088;entryDx=0;entryDy=0;entryPerimeter=0;" parent="1" edge="1">
          <mxGeometry width="50" height="50" relative="1" as="geometry">
            <mxPoint x="345" y="490" as="sourcePoint" />
            <mxPoint x="344.5" y="520" as="targetPoint" />
          </mxGeometry>
        </mxCell>
        <mxCell id="7ryY0xuVJwBkGCdU82s2-90" value="" style="endArrow=classic;startArrow=classic;html=1;rounded=0;exitX=0.157;exitY=-0.002;exitDx=0;exitDy=0;exitPerimeter=0;" parent="1" edge="1">
          <mxGeometry width="50" height="50" relative="1" as="geometry">
            <mxPoint x="150.07000000000016" y="519.55" as="sourcePoint" />
            <mxPoint x="150" y="380" as="targetPoint" />
          </mxGeometry>
        </mxCell>
        <mxCell id="BnzrwBopkVC8lU074Qnc-5" value="" style="endArrow=classic;startArrow=classic;html=1;rounded=0;entryX=0;entryY=0.5;entryDx=0;entryDy=0;exitX=1;exitY=0.5;exitDx=0;exitDy=0;" parent="1" source="7ryY0xuVJwBkGCdU82s2-23" target="7ryY0xuVJwBkGCdU82s2-26" edge="1">
          <mxGeometry width="50" height="50" relative="1" as="geometry">
            <mxPoint x="380" y="500" as="sourcePoint" />
            <mxPoint x="430" y="450" as="targetPoint" />
          </mxGeometry>
        </mxCell>
        <mxCell id="BnzrwBopkVC8lU074Qnc-6" value="&lt;font style=&quot;font-size: 11px;&quot;&gt;跨场景JVM/TR调用&lt;/font&gt;" style="edgeLabel;html=1;align=center;verticalAlign=middle;resizable=0;points=[];" parent="BnzrwBopkVC8lU074Qnc-5" vertex="1" connectable="0">
          <mxGeometry x="-0.2889" y="-2" relative="1" as="geometry">
            <mxPoint x="18" y="-2" as="offset" />
          </mxGeometry>
        </mxCell>
        <mxCell id="BnzrwBopkVC8lU074Qnc-8" value="" style="endArrow=classic;startArrow=classic;html=1;rounded=0;exitX=1;exitY=0.5;exitDx=0;exitDy=0;" parent="1" source="7ryY0xuVJwBkGCdU82s2-14" edge="1">
          <mxGeometry width="50" height="50" relative="1" as="geometry">
            <mxPoint x="260" y="390" as="sourcePoint" />
            <mxPoint x="290" y="360" as="targetPoint" />
          </mxGeometry>
        </mxCell>
        <mxCell id="BnzrwBopkVC8lU074Qnc-9" value="JVM内部通信" style="edgeLabel;html=1;align=center;verticalAlign=middle;resizable=0;points=[];" parent="BnzrwBopkVC8lU074Qnc-8" vertex="1" connectable="0">
          <mxGeometry x="-0.1" y="1" relative="1" as="geometry">
            <mxPoint x="9" y="1" as="offset" />
          </mxGeometry>
        </mxCell>
        <mxCell id="BnzrwBopkVC8lU074Qnc-10" value="" style="endArrow=classic;startArrow=classic;html=1;rounded=0;entryX=0.127;entryY=-0.025;entryDx=0;entryDy=0;exitX=0.75;exitY=1;exitDx=0;exitDy=0;entryPerimeter=0;" parent="1" source="7ryY0xuVJwBkGCdU82s2-14" target="7ryY0xuVJwBkGCdU82s2-76" edge="1">
          <mxGeometry width="50" height="50" relative="1" as="geometry">
            <mxPoint x="170" y="390" as="sourcePoint" />
            <mxPoint x="270" y="390" as="targetPoint" />
          </mxGeometry>
        </mxCell>
        <mxCell id="BnzrwBopkVC8lU074Qnc-11" value="&lt;font style=&quot;font-size: 11px;&quot;&gt;跨场景JVM/TR调用&lt;/font&gt;" style="edgeLabel;html=1;align=center;verticalAlign=middle;resizable=0;points=[];" parent="BnzrwBopkVC8lU074Qnc-10" vertex="1" connectable="0">
          <mxGeometry x="-0.2889" y="-2" relative="1" as="geometry">
            <mxPoint x="18" y="-2" as="offset" />
          </mxGeometry>
        </mxCell>
        <mxCell id="gZU93s2un7BECAX4rJAI-1" value="" style="endArrow=classic;html=1;rounded=0;exitX=0.5;exitY=1;exitDx=0;exitDy=0;entryX=0.83;entryY=-0.075;entryDx=0;entryDy=0;entryPerimeter=0;" edge="1" parent="1" source="7ryY0xuVJwBkGCdU82s2-29" target="7ryY0xuVJwBkGCdU82s2-77">
          <mxGeometry width="50" height="50" relative="1" as="geometry">
            <mxPoint x="240" y="500" as="sourcePoint" />
            <mxPoint x="290" y="450" as="targetPoint" />
          </mxGeometry>
        </mxCell>
      </root>
    </mxGraphModel>
  </diagram>
</mxfile>
